<svg version="1.1" xmlns="http://www.w3.org/2000/svg" xmlns:xlink="http://www.w3.org/1999/xlink" width="158.01138" height="158.01138" viewBox="0,0,158.01138,158.01138"><defs><radialGradient cx="240.00001" cy="180.00001" r="79.00569" gradientUnits="userSpaceOnUse" id="color-1"><stop offset="0" stop-color="#1eff00"/><stop offset="1" stop-color="#1eff00" stop-opacity="0"/></radialGradient><linearGradient x1="240.00001" y1="112.79339" x2="240.00001" y2="247.20666" gradientUnits="userSpaceOnUse" id="color-2"><stop offset="0" stop-color="#003dbf"/><stop offset="1" stop-color="#77b879"/></linearGradient><radialGradient cx="217.63598" cy="162.75273" r="14.56081" gradientUnits="userSpaceOnUse" id="color-3"><stop offset="0" stop-color="#00ba87"/><stop offset="1" stop-color="#00ffff" stop-opacity="0.13725"/></radialGradient><linearGradient x1="240.00001" y1="112.79339" x2="240.00001" y2="122.79339" gradientUnits="userSpaceOnUse" id="color-4"><stop offset="0" stop-color="#bfbfbf"/><stop offset="1" stop-color="#ffffff" stop-opacity="0.04706"/></linearGradient><radialGradient cx="265.3563" cy="162.75273" r="14.56082" gradientUnits="userSpaceOnUse" id="color-5"><stop offset="0" stop-color="#00ba87"/><stop offset="1" stop-color="#00ffff" stop-opacity="0.13725"/></radialGradient><linearGradient x1="239.37578" y1="165.68938" x2="239.37578" y2="222.84958" gradientUnits="userSpaceOnUse" id="color-6"><stop offset="0" stop-color="#00ba86"/><stop offset="1" stop-color="#e0e0e0"/></linearGradient><linearGradient x1="206.86832" y1="136.90859" x2="206.86832" y2="167.0091" gradientUnits="userSpaceOnUse" id="color-7"><stop offset="0" stop-color="#0067bb"/><stop offset="1" stop-color="#00ba87"/></linearGradient><linearGradient x1="273.92149" y1="136.90859" x2="273.92149" y2="167.0091" gradientUnits="userSpaceOnUse" id="color-8"><stop offset="0" stop-color="#0067bb"/><stop offset="1" stop-color="#00ba87"/></linearGradient><radialGradient cx="241.31985" cy="152.36842" r="5.20196" gradientUnits="userSpaceOnUse" id="color-9"><stop offset="0" stop-color="#00ba87"/><stop offset="1" stop-color="#00ffff" stop-opacity="0.13725"/></radialGradient><radialGradient cx="241.31984" cy="143.2961" r="12.15266" gradientUnits="userSpaceOnUse" id="color-10"><stop offset="0" stop-color="#00ba87"/><stop offset="1" stop-color="#00ffff" stop-opacity="0.13725"/></radialGradient><radialGradient cx="241.31985" cy="136.20604" r="21.04589" gradientUnits="userSpaceOnUse" id="color-11"><stop offset="0" stop-color="#00ba87"/><stop offset="1" stop-color="#00ffff" stop-opacity="0.13725"/></radialGradient></defs><g transform="translate(-160.99432,-100.99432)"><g stroke-miterlimit="10"><path d="M160.99433,180.00001c0,-43.63363 35.37205,-79.00568 79.00569,-79.00568c43.63364,0 79.00569,35.37205 79.00569,79.00569c0,43.63364 -35.37205,79.00569 -79.00569,79.00569c-43.63363,0 -79.00568,-35.37205 -79.00568,-79.00569z" fill="url(#color-1)" fill-rule="nonzero" stroke="none" stroke-width="0" stroke-linecap="butt"/><path d="M182.79338,247.20666c-5.52285,0 -10,-4.47715 -10,-10v-114.41327c0,-5.52285 4.47715,-10 10,-10h114.41327c5.52285,0 10,4.47715 10,10v114.41327c0,5.52285 -4.47715,10 -10,10z" fill="url(#color-2)" fill-rule="nonzero" stroke="none" stroke-width="0" stroke-linecap="butt"/><path d="M214.70191,158.70413c6.51154,-4.71901 13.10382,-6.7319 14.72427,-4.49591c1.62044,2.23598 -2.34458,7.87411 -8.85612,12.59312c-6.51154,4.71901 -13.10382,6.73189 -14.72427,4.4959c-1.62044,-2.23598 2.34458,-7.87411 8.85612,-12.59311z" fill="none" fill-rule="nonzero" stroke="url(#color-3)" stroke-width="6" stroke-linecap="butt"/><path d="M269.02869,204.88827c0.9273,-5.45486 -0.84666,-10.90165 -4.2736,-14.6163l-4.71305,4.72405c-1.85458,1.81695 -5.00333,0.52489 -5.00333,-2.09958v-19.25958c0,-1.61506 1.33046,-2.94749 2.94717,-2.94749c0,0 10.55224,2.9073 16.83836,-4.01647c4.35222,-4.79369 4.43457,-19.66586 6.71223,-21.39067c4.25532,-3.22243 6.98832,2.28088 6.98832,2.28088c2.62463,0 -7.40101,26.27563 -9.21124,28.13294l-4.0317,4.03765c2.8625,3.67425 4.91868,7.95417 5.88628,12.43596c1.12484,5.20856 0.92325,10.61499 -0.60878,15.58533c-3.02378,10.01337 -11.40969,17.76566 -21.00513,19.98637c-2.29807,0.52489 -4.63645,-0.92866 -5.16057,-3.23013c-0.52412,-2.13995 0.6854,-4.23953 2.66092,-5.00669h0.04031c6.41442,-2.46297 11.01058,-8.39831 11.93383,-14.61629zM219.72208,193.65068c-0.92325,5.45083 0.84665,10.90166 4.2736,14.6163l4.71708,-4.72405c1.85458,-1.81695 4.9993,-0.52893 4.9993,2.09958v19.25554c0,1.6191 -1.33047,2.95153 -2.94314,2.95153h-19.23118c-2.6206,0 -3.91075,-3.15341 -2.09648,-5.01073l4.0317,-4.03765c-2.8625,-3.67425 -4.91868,-7.95013 -5.88627,-12.43596c-1.12887,-5.20856 -0.92728,-10.61498 0.60476,-15.58129c3.02378,-10.01337 11.40971,-17.76565 21.00513,-19.98636c2.29807,-0.52489 4.63645,0.92461 5.16057,3.23012c0.52412,2.13995 -0.6854,4.2355 -2.66092,5.00669h-0.04031c-6.4104,2.45892 -11.00653,8.39831 -11.93382,14.61629z" fill-opacity="0.10588" fill="#000000" fill-rule="evenodd" stroke="#ff0000" stroke-width="0" stroke-linecap="butt"/><path d="M269.02869,204.88827c0.9273,-5.45486 -0.84666,-10.90165 -4.2736,-14.6163l-4.71305,4.72405c-1.85458,1.81695 -5.00333,0.52489 -5.00333,-2.09958v-19.25958c0,-1.61506 1.33046,-2.94749 2.94717,-2.94749c0,0 10.55224,2.9073 16.83836,-4.01647c4.35222,-4.79369 4.43457,-19.66586 6.71223,-21.39067c4.25532,-3.22243 6.98832,2.28088 6.98832,2.28088c2.62463,0 -7.40101,26.27563 -9.21124,28.13294l-4.0317,4.03765c2.8625,3.67425 4.91868,7.95417 5.88628,12.43596c1.12484,5.20856 0.92325,10.61499 -0.60878,15.58533c-3.02378,10.01337 -11.40969,17.76566 -21.00513,19.98637c-2.29807,0.52489 -4.63645,-0.92866 -5.16057,-3.23013c-0.52412,-2.13995 0.6854,-4.23953 2.66092,-5.00669h0.04031c6.41442,-2.46297 11.01058,-8.39831 11.93383,-14.61629zM219.72208,193.65068c-0.92325,5.45083 0.84665,10.90166 4.2736,14.6163l4.71708,-4.72405c1.85458,-1.81695 4.9993,-0.52893 4.9993,2.09958v19.25554c0,1.6191 -1.33047,2.95153 -2.94314,2.95153h-19.23118c-2.6206,0 -3.91075,-3.15341 -2.09648,-5.01073l4.0317,-4.03765c-2.8625,-3.67425 -4.91868,-7.95013 -5.88627,-12.43596c-1.12887,-5.20856 -0.92728,-10.61498 0.60476,-15.58129c3.02378,-10.01337 11.40971,-17.76565 21.00513,-19.98636c2.29807,-0.52489 4.63645,0.92461 5.16057,3.23012c0.52412,2.13995 -0.6854,4.2355 -2.66092,5.00669h-0.04031c-6.4104,2.45892 -11.00653,8.39831 -11.93382,14.61629z" fill-opacity="0.10588" fill="#000000" fill-rule="evenodd" stroke="#ff0000" stroke-width="0" stroke-linecap="butt"/><path d="M172.79338,122.79339c0,-5.52285 4.47715,-10 10,-10h114.41327c5.52285,0 10,4.47715 10,10c0,0 -43.68828,-3.21161 -66.05986,-3.21161c-22.43267,0 -68.35341,3.21161 -68.35341,3.21161z" fill="url(#color-4)" fill-rule="nonzero" stroke="none" stroke-width="0" stroke-linecap="butt"/><path d="M277.14649,171.29725c-1.62045,2.23598 -8.21273,0.2231 -14.72427,-4.49591c-6.51154,-4.71901 -10.47655,-10.35713 -8.85611,-12.59312c1.62044,-2.23598 8.21273,-0.2231 14.72427,4.49591c6.51154,4.71901 10.47655,10.35714 8.85611,12.59312z" fill="none" fill-rule="nonzero" stroke="url(#color-5)" stroke-width="6" stroke-linecap="butt"/><path d="M264.02869,199.88827c0.9273,-5.45486 -0.84666,-10.90165 -4.2736,-14.6163l-4.71305,4.72405c-1.85458,1.81695 -5.00334,0.52489 -5.00334,-2.09958v-19.25958c0,-1.61506 1.33046,-2.94749 2.94717,-2.94749h19.22716c2.62463,0 3.91075,3.14937 2.10052,5.00669l-4.0317,4.03765c2.8625,3.67425 4.91868,7.95417 5.88628,12.43596c1.12484,5.20856 0.92325,10.61499 -0.60878,15.58533c-3.02378,10.01337 -11.40969,17.76566 -21.00513,19.98637c-2.29807,0.52489 -4.63645,-0.92866 -5.16057,-3.23013c-0.52412,-2.13995 0.6854,-4.23953 2.66092,-5.00669h0.04032c6.41442,-2.46297 11.01057,-8.39831 11.93382,-14.61629zM214.72208,188.65068c-0.92325,5.45083 0.84665,10.90166 4.2736,14.6163l4.71708,-4.72405c1.85458,-1.81695 4.9993,-0.52893 4.9993,2.09958v19.25554c0,1.6191 -1.33047,2.95153 -2.94314,2.95153h-19.23118c-2.6206,0 -3.91075,-3.15341 -2.09648,-5.01073l4.0317,-4.03765c-2.8625,-3.67425 -4.91868,-7.95013 -5.88627,-12.43596c-1.12887,-5.20856 -0.92728,-10.61498 0.60476,-15.58129c3.02378,-10.01337 11.40971,-17.76565 21.00513,-19.98636c2.29807,-0.52489 4.63645,0.92461 5.16057,3.23012c0.52412,2.13995 -0.6854,4.2355 -2.66092,5.00669h-0.04031c-6.4104,2.45892 -11.00653,8.39831 -11.93382,14.61629z" fill="url(#color-6)" fill-rule="evenodd" stroke="#ff0000" stroke-width="0" stroke-linecap="butt"/><path d="M195.85594,136.90859l27.16388,32.05827" fill="none" fill-rule="nonzero" stroke="url(#color-7)" stroke-width="11" stroke-linecap="round"/><path d="M284.93387,136.90859l-29.12163,32.54771" fill="none" fill-rule="nonzero" stroke="url(#color-8)" stroke-width="11" stroke-linecap="round"/><path d="M236.11789,152.36842c0,0 1.41349,-1.83395 4.89952,-1.93561c3.79417,-0.11065 5.5044,1.93561 5.5044,1.93561" fill="none" fill-rule="nonzero" stroke="url(#color-9)" stroke-width="6" stroke-linecap="round"/><path d="M229.16719,143.2961c0,0 3.30216,-4.28441 11.4461,-4.52192c8.86382,-0.25849 12.8592,4.52192 12.8592,4.52192" fill="none" fill-rule="nonzero" stroke="url(#color-10)" stroke-width="6" stroke-linecap="round"/><path d="M220.27396,136.20604c0,0 5.71865,-7.41972 19.82229,-7.83103c15.35031,-0.44765 22.26948,7.83103 22.26948,7.83103" fill="none" fill-rule="nonzero" stroke="url(#color-11)" stroke-width="6" stroke-linecap="round"/></g></g></svg>